%TF.GenerationSoftware,KiCad,Pcbnew,5.99.0-unknown-912657dd23~106~ubuntu20.04.1*%
%TF.CreationDate,2020-12-26T22:33:19-05:00*%
%TF.ProjectId,VL53L1X,564c3533-4c31-4582-9e6b-696361645f70,rev?*%
%TF.SameCoordinates,Original*%
%TF.FileFunction,Legend,Top*%
%TF.FilePolarity,Positive*%
%FSLAX46Y46*%
G04 Gerber Fmt 4.6, Leading zero omitted, Abs format (unit mm)*
G04 Created by KiCad (PCBNEW 5.99.0-unknown-912657dd23~106~ubuntu20.04.1) date 2020-12-26 22:33:19*
%MOMM*%
%LPD*%
G01*
G04 APERTURE LIST*
%ADD10C,0.153000*%
%ADD11C,0.200000*%
%ADD12C,0.100000*%
G04 APERTURE END LIST*
D10*
X153326095Y-86066666D02*
X153707047Y-85800000D01*
X153326095Y-85609523D02*
X154126095Y-85609523D01*
X154126095Y-85914285D01*
X154088000Y-85990476D01*
X154049904Y-86028571D01*
X153973714Y-86066666D01*
X153859428Y-86066666D01*
X153783238Y-86028571D01*
X153745142Y-85990476D01*
X153707047Y-85914285D01*
X153707047Y-85609523D01*
X154126095Y-86333333D02*
X153326095Y-86866666D01*
X154126095Y-86866666D02*
X153326095Y-86333333D01*
X151550095Y-85590476D02*
X151550095Y-86047619D01*
X150750095Y-85819047D02*
X151550095Y-85819047D01*
X151550095Y-86238095D02*
X150750095Y-86771428D01*
X151550095Y-86771428D02*
X150750095Y-86238095D01*
X156738095Y-85461904D02*
X155938095Y-85728571D01*
X156738095Y-85995238D01*
X155938095Y-86642857D02*
X155938095Y-86261904D01*
X156738095Y-86261904D01*
X156738095Y-87290476D02*
X156738095Y-86909523D01*
X156357142Y-86871428D01*
X156395238Y-86909523D01*
X156433333Y-86985714D01*
X156433333Y-87176190D01*
X156395238Y-87252380D01*
X156357142Y-87290476D01*
X156280952Y-87328571D01*
X156090476Y-87328571D01*
X156014285Y-87290476D01*
X155976190Y-87252380D01*
X155938095Y-87176190D01*
X155938095Y-86985714D01*
X155976190Y-86909523D01*
X156014285Y-86871428D01*
X156738095Y-87595238D02*
X156738095Y-88090476D01*
X156433333Y-87823809D01*
X156433333Y-87938095D01*
X156395238Y-88014285D01*
X156357142Y-88052380D01*
X156280952Y-88090476D01*
X156090476Y-88090476D01*
X156014285Y-88052380D01*
X155976190Y-88014285D01*
X155938095Y-87938095D01*
X155938095Y-87709523D01*
X155976190Y-87633333D01*
X156014285Y-87595238D01*
X155938095Y-88814285D02*
X155938095Y-88433333D01*
X156738095Y-88433333D01*
X155938095Y-89500000D02*
X155938095Y-89042857D01*
X155938095Y-89271428D02*
X156738095Y-89271428D01*
X156623809Y-89195238D01*
X156547619Y-89119047D01*
X156509523Y-89042857D01*
X156738095Y-89766666D02*
X155938095Y-90300000D01*
X156738095Y-90300000D02*
X155938095Y-89766666D01*
D11*
%TO.C,IC1*%
X150700000Y-87300000D02*
X150700000Y-87300000D01*
D12*
X154800000Y-87700000D02*
X154800000Y-90100000D01*
X150000000Y-87700000D02*
X154800000Y-87700000D01*
X154800000Y-90100000D02*
X150000000Y-90100000D01*
X150000000Y-90100000D02*
X150000000Y-87700000D01*
D11*
X150900000Y-87300000D02*
X150900000Y-87300000D01*
X150900000Y-87300000D02*
G75*
G03*
X150700000Y-87300000I-100000J0D01*
G01*
X150700000Y-87300000D02*
G75*
G03*
X150900000Y-87300000I100000J0D01*
G01*
%TD*%
M02*
