%TF.GenerationSoftware,KiCad,Pcbnew,5.99.0-unknown-912657dd23~106~ubuntu20.04.1*%
%TF.CreationDate,2020-12-26T22:44:48-05:00*%
%TF.ProjectId,VL53L1X,564c3533-4c31-4582-9e6b-696361645f70,rev?*%
%TF.SameCoordinates,Original*%
%TF.FileFunction,Copper,L2,Bot*%
%TF.FilePolarity,Positive*%
%FSLAX46Y46*%
G04 Gerber Fmt 4.6, Leading zero omitted, Abs format (unit mm)*
G04 Created by KiCad (PCBNEW 5.99.0-unknown-912657dd23~106~ubuntu20.04.1) date 2020-12-26 22:44:48*
%MOMM*%
%LPD*%
G01*
G04 APERTURE LIST*
G04 Aperture macros list*
%AMRoundRect*
0 Rectangle with rounded corners*
0 $1 Rounding radius*
0 $2 $3 $4 $5 $6 $7 $8 $9 X,Y pos of 4 corners*
0 Add a 4 corners polygon primitive as box body*
4,1,4,$2,$3,$4,$5,$6,$7,$8,$9,$2,$3,0*
0 Add four circle primitives for the rounded corners*
1,1,$1+$1,$2,$3,0*
1,1,$1+$1,$4,$5,0*
1,1,$1+$1,$6,$7,0*
1,1,$1+$1,$8,$9,0*
0 Add four rect primitives between the rounded corners*
20,1,$1+$1,$2,$3,$4,$5,0*
20,1,$1+$1,$4,$5,$6,$7,0*
20,1,$1+$1,$6,$7,$8,$9,0*
20,1,$1+$1,$8,$9,$2,$3,0*%
G04 Aperture macros list end*
%TA.AperFunction,SMDPad,CuDef*%
%ADD10RoundRect,0.150000X0.150000X0.625000X-0.150000X0.625000X-0.150000X-0.625000X0.150000X-0.625000X0*%
%TD*%
%TA.AperFunction,SMDPad,CuDef*%
%ADD11RoundRect,0.250000X0.350000X0.650000X-0.350000X0.650000X-0.350000X-0.650000X0.350000X-0.650000X0*%
%TD*%
%TA.AperFunction,ViaPad*%
%ADD12C,0.600000*%
%TD*%
%TA.AperFunction,Conductor*%
%ADD13C,0.200000*%
%TD*%
G04 APERTURE END LIST*
D10*
%TO.P,J1,1,Pin_1*%
%TO.N,GND*%
X154900000Y-85900000D03*
%TO.P,J1,2,Pin_2*%
%TO.N,/AVDD*%
X153900000Y-85900000D03*
%TO.P,J1,3,Pin_3*%
%TO.N,/SDA*%
X152900000Y-85900000D03*
%TO.P,J1,4,Pin_4*%
%TO.N,/SCL*%
X151900000Y-85900000D03*
%TO.P,J1,5,Pin_5*%
%TO.N,/GPIO1*%
X150900000Y-85900000D03*
%TO.P,J1,6,Pin_6*%
%TO.N,/XSHUT*%
X149900000Y-85900000D03*
D11*
%TO.P,J1,MP*%
%TO.N,N/C*%
X156200000Y-89775000D03*
X148600000Y-89775000D03*
%TD*%
D12*
%TO.N,GND*%
X153200000Y-88900000D03*
%TO.N,/AVDD*%
X153200000Y-87200000D03*
%TO.N,/XSHUT*%
X149900000Y-87200000D03*
%TO.N,/GPIO1*%
X149100000Y-86800000D03*
%TO.N,/SDA*%
X152400000Y-90500000D03*
%TO.N,/SCL*%
X151600000Y-90500000D03*
%TD*%
D13*
%TO.N,GND*%
X154900000Y-85900000D02*
X154900000Y-87200000D01*
X154900000Y-87200000D02*
X153200000Y-88900000D01*
%TO.N,/AVDD*%
X153200000Y-87200000D02*
X153900000Y-86500000D01*
%TO.N,/XSHUT*%
X149900000Y-85900000D02*
X149900000Y-87200000D01*
%TO.N,/GPIO1*%
X150900000Y-87088002D02*
X150188001Y-87800001D01*
X150900000Y-85900000D02*
X150900000Y-87088002D01*
X149100000Y-87288002D02*
X149100000Y-86800000D01*
X150188001Y-87800001D02*
X149611999Y-87800001D01*
X149611999Y-87800001D02*
X149100000Y-87288002D01*
%TO.N,/SDA*%
X152400000Y-90500000D02*
X152400000Y-86811412D01*
X152400000Y-86811412D02*
X152900000Y-86311412D01*
%TO.N,/SCL*%
X151600000Y-86600000D02*
X151600000Y-90500000D01*
X151900000Y-86300000D02*
X151600000Y-86600000D01*
%TD*%
M02*
